<?xml version="1.0" encoding="UTF-8"?>
<svg version="1.1" xmlns="http://www.w3.org/2000/svg" width="146" height="150">
<path d="M0 0 C6.93386213 5.1228713 11.60605372 10.59075651 14 19 C15.0106041 28.91802164 14.29604132 37.46151904 8.08203125 45.47265625 C2.14772229 51.93212529 -3.64274883 55.41433963 -12.39453125 56.37109375 C-21.71322581 56.70426484 -29.19504815 55.06334145 -36.75 49.5 C-42.67958665 43.94979449 -46.73175763 35.32998053 -47.09765625 27.20703125 C-46.68705399 17.92742024 -43.86024068 9.76986431 -37.109375 3.14453125 C-26.56930691 -5.25847579 -11.72330301 -7.70259408 0 0 Z " fill="#39766F" transform="translate(89,59)"/>
<path d="M0 0 C11.55 0 23.1 0 35 0 C35.18087469 13.68247484 35.3275861 27.3641533 35.41449738 41.04755402 C35.45621461 47.40162132 35.51278243 53.75482701 35.60351562 60.10839844 C35.69056096 66.24224795 35.73830019 72.37526977 35.75901794 78.50968933 C35.77377824 80.84772266 35.80260286 83.18571163 35.84584045 85.52339172 C35.90408924 88.80369241 35.91190595 92.08059191 35.90820312 95.36132812 C35.93696533 96.3237442 35.96572754 97.28616028 35.99536133 98.27774048 C35.928422 103.77356957 35.05126028 106.54099484 31.14782715 110.51550293 C22.90739377 117.83807812 11.3350428 126 0 126 C0 119.73 0 113.46 0 107 C2.734375 105.56770833 5.46875 104.13541667 8.203125 102.703125 C10.91608745 101.05109758 12.7889869 99.25014607 15 97 C15.66 97 16.32 97 17 97 C17.27070312 96.42378906 17.54140625 95.84757812 17.8203125 95.25390625 C19.0102711 92.98037607 20.37477718 91.01682437 21.875 88.9375 C29.24688568 77.92473191 31.33813369 65.98081595 28.77734375 53.04296875 C25.33444208 39.56547929 17.87213438 29.37128653 6 22 C4.02 21.01 2.04 20.02 0 19 C0 12.73 0 6.46 0 0 Z " fill="#242C2B" transform="translate(90,22)"/>
<path d="M0 0 C8.58 0 17.16 0 26 0 C26 0.66 26 1.32 26 2 C24.66419558 3.07161199 23.2792564 4.08230122 21.875 5.0625 C13.04156377 11.7914185 7.57120402 22.22303417 5.37890625 33.07421875 C3.65070763 46.41876276 6.81428524 59.07767321 14.4921875 70.15234375 C22.85912642 80.5809925 35.09276473 85.84879412 48 88 C48 93.94 48 99.88 48 106 C41.43183806 106 37.0614673 105.86000393 31.125 103.875 C30.43446533 103.6490918 29.74393066 103.42318359 29.0324707 103.19042969 C17.9101662 99.40752654 8.34015514 93.34015514 0 85 C-0.09511266 82.35261911 -0.12555635 79.73140999 -0.11352539 77.08374023 C-0.11367142 76.25454071 -0.11381744 75.42534119 -0.1139679 74.5710144 C-0.11326851 71.81684802 -0.10547493 69.06274839 -0.09765625 66.30859375 C-0.09579216 64.40430234 -0.09436822 62.50001045 -0.09336853 60.59571838 C-0.08954263 55.57332037 -0.07971173 50.55095108 -0.06866455 45.52856445 C-0.05845198 40.4077188 -0.05387124 35.28686852 -0.04882812 30.16601562 C-0.03808952 20.1106624 -0.02049215 10.05533808 0 0 Z " fill="#242C2B" transform="translate(21,44)"/>
<path d="M0 0 C0.71759103 7.85363514 0.30367377 12.60246849 -4.46484375 18.94921875 C-10.21275833 26.6277306 -9.81491072 35.82538719 -9 45 C-6.62267169 55.23459984 -0.35617721 62.78338186 8.25390625 68.5234375 C12.62212186 70.87220777 17.15874582 72.03358995 22 73 C22 75.97 22 78.94 22 82 C10.95267197 81.83261624 1.20684288 77.37303488 -6.9375 69.9375 C-15.71585691 60.35664404 -20.5870517 47.6204645 -20.24609375 34.6640625 C-19.00875257 21.26935322 -13.52022329 10.87252976 -3.953125 1.58203125 C-2 0 -2 0 0 0 Z " fill="#252C2A" transform="translate(47,48)"/>
<path d="M0 0 C7.59 0 15.18 0 23 0 C23 12.54 23 25.08 23 38 C19.37 38 15.74 38 12 38 C6.06 38.495 6.06 38.495 0 39 C0 26.13 0 13.26 0 0 Z " fill="#252C2A" transform="translate(60,0)"/>
<path d="M0 0 C8.63656334 1.99305308 16.05102296 8.82110598 21 16 C28.19859682 28.37758731 30.34211251 41.7950812 27.125 55.8125 C22.56555881 68.53094121 13.95301647 77.90630533 2 84 C1.34 84 0.68 84 0 84 C-0.64716251 80.49094107 -0.82251499 77.49067338 0 74 C2.2667312 71.645411 4.7091718 69.94098436 7.3828125 68.06640625 C13.17671851 63.49181479 16.79818489 56.21089068 18 49 C19.0006294 36.36705381 16.94477927 26.8043882 8.8828125 16.91015625 C7.04101086 15.04160646 5.31876981 13.87332882 3.0625 12.5625 C0 10 0 10 -0.4375 7.4765625 C-0.4375 4.94627968 -0.30708298 2.51028151 0 0 Z " fill="#242B2B" transform="translate(90,43)"/>
<path d="M0 0 C0 2.64 0 5.28 0 8 C-0.75023437 8.29132812 -1.50046875 8.58265625 -2.2734375 8.8828125 C-21.92453096 16.75314968 -35.09006945 28.22741722 -43.71484375 47.75390625 C-50.66013378 65.2965689 -51.19951076 84.31245585 -43.64306641 101.79150391 C-42.85510323 103.53095229 -42.03200326 105.25435815 -41.20703125 106.9765625 C-40.02333758 109.94154277 -39.73667499 111.85180325 -40 115 C-49.04137966 107.07109435 -54.40610887 92.05049474 -55.17138672 80.38818359 C-56.20571086 58.23303405 -52.28880561 38.71292975 -37.39794922 21.55786133 C-28.62811742 11.95965238 -13.68749735 0 0 0 Z " fill="#586766" transform="translate(55,6)"/>
<path d="M0 0 C5.24866383 1.74955461 7.46456022 7.36986306 10.03076172 12.05175781 C17.96221512 27.99457851 20.52298371 50.0049141 15.1796875 67.12890625 C7.95548968 84.7109771 7.95548968 84.7109771 1 91 C1.33991754 86.80768363 2.58706785 83.56017759 4.375 79.8125 C11.93339903 63.75636332 13.20292055 46.01064835 8 29 C5.0167158 19.87526903 5.0167158 19.87526903 0 12 C-0.07244053 9.98035801 -0.08377188 7.95832876 -0.0625 5.9375 C-0.05347656 4.83277344 -0.04445312 3.72804687 -0.03515625 2.58984375 C-0.02355469 1.73519531 -0.01195312 0.88054688 0 0 Z " fill="#576867" transform="translate(129,31)"/>
<path d="M0 0 C3.7258762 1.47629057 6.31759354 3.0493529 9 6 C9.66 6.33 10.32 6.66 11 7 C13.44194442 10.61545834 14.97816005 13.8643228 15.0625 18.25 C13.67173231 21.84963401 12.35682396 23.10266472 9 25 C5.08805294 25.84375329 2.88252827 25.49824419 -0.6015625 23.53125 C-4.40390365 20.94521971 -7.4308177 18.85377346 -10 15 C-10.51953125 12.1875 -10.51953125 12.1875 -10.8125 9 C-10.92207031 7.948125 -11.03164062 6.89625 -11.14453125 5.8125 C-11 3 -11 3 -9.75 1.1484375 C-6.73255677 -0.83175962 -3.43628095 -0.48810809 0 0 Z " fill="#679690" transform="translate(83,61)"/>
<path d="M0 0 C0.84304687 -0.00128906 1.68609375 -0.00257812 2.5546875 -0.00390625 C3.86953125 0.00189453 3.86953125 0.00189453 5.2109375 0.0078125 C6.09523438 0.00394531 6.97953125 0.00007813 7.890625 -0.00390625 C9.15132812 -0.00197266 9.15132812 -0.00197266 10.4375 0 C11.20916504 0.00112793 11.98083008 0.00225586 12.77587891 0.00341797 C14.5859375 0.1328125 14.5859375 0.1328125 15.5859375 1.1328125 C15.5859375 4.1028125 15.5859375 7.0728125 15.5859375 10.1328125 C7.9959375 10.1328125 0.4059375 10.1328125 -7.4140625 10.1328125 C-7.4140625 7.1628125 -7.4140625 4.1928125 -7.4140625 1.1328125 C-4.61533644 0.19990381 -2.89417305 0.00421803 0 0 Z " fill="#252C2B" transform="translate(67.4140625,39.8671875)"/>
<path d="M0 0 C3.85476085 0.02455262 4.56160177 0.2258514 7.75 2.75 C11.17475811 7.24499502 10.92624765 9.82319899 10.75 15.375 C9.75 16.375 9.75 16.375 6 16.75 C2.33905591 16.7303175 1.86646938 16.47374578 -1.125 13.9375 C-1.82625 13.091875 -2.5275 12.24625 -3.25 11.375 C-3.91 11.045 -4.57 10.715 -5.25 10.375 C-5.27689216 8.89593108 -5.29634621 7.41672517 -5.3125 5.9375 C-5.32410156 5.11378906 -5.33570312 4.29007812 -5.34765625 3.44140625 C-5.17223133 -0.27058504 -3.29271013 0.14173918 0 0 Z " fill="#81A7A3" transform="translate(80.25,63.625)"/>
<path d="M0 0 C5.02796034 6.65790353 5.02796034 6.65790353 4.9375 11 C3.73015974 14.86348884 2.51010257 16.01602898 -1 18 C-4.91194706 18.84375329 -7.11747173 18.49824419 -10.6015625 16.53125 C-14.40390365 13.94521971 -17.4308177 11.85377346 -20 8 C-19.67 7.01 -19.34 6.02 -19 5 C-18.67 5.99 -18.34 6.98 -18 8 C-16.15028304 9.05021103 -16.15028304 9.05021103 -14 10 C-13.443125 10.53625 -12.88625 11.0725 -12.3125 11.625 C-8.76084148 13.73679696 -5.04418493 13.42656717 -1 13 C0.31262571 11.91447634 0.31262571 11.91447634 0.09765625 9.27734375 C0.08605469 8.17519531 0.07445313 7.07304688 0.0625 5.9375 C0.05347656 4.83277344 0.04445313 3.72804688 0.03515625 2.58984375 C0.02355469 1.73519531 0.01195313 0.88054687 0 0 Z " fill="#5C8E88" transform="translate(93,68)"/>
<path d="M0 0 C4.00213481 0.54574566 5.34416054 2.21303957 7.75 5.375 C8.0625 8.6875 8.0625 8.6875 7.75 11.375 C3.97741269 11.08480098 1.42334017 10.85842371 -1.6875 8.625 C-3.54391651 5.95176023 -3.68103681 4.5646724 -3.25 1.375 C-2.25 0.375 -2.25 0.375 0 0 Z " fill="#AAC4C1" transform="translate(81.25,66.625)"/>
<path d="M0 0 C0.66 0 1.32 0 2 0 C3.79477439 3.81389558 4.37453719 6.78645663 4 11 C1.67497119 13.32502881 1.05341735 13.3671045 -2.125 13.5 C-7.06333171 13.41996221 -9.80304454 11.54491143 -13.56640625 8.5078125 C-15 7 -15 7 -15 5 C-11.34683329 6.24976756 -10.21934164 6.67098753 -8 10 C-6.02252878 10.36297936 -6.02252878 10.36297936 -3.875 10.1875 C-2.59625 10.125625 -1.3175 10.06375 0 10 C0 6.7 0 3.4 0 0 Z " fill="#76A09B" transform="translate(90,69)"/>
<path d="M0 0 C4.44655242 0.04807084 7.45965749 1.17247132 11.375 3.25 C11.705 3.91 12.035 4.57 12.375 5.25 C11.1375 4.755 11.1375 4.755 9.875 4.25 C5.71773169 3.06220905 2.68373815 2.96275079 -1.625 3.25 C-3.83870051 5.03657757 -3.83870051 5.03657757 -3.8203125 7.4140625 C-3.79710938 8.22617188 -3.77390625 9.03828125 -3.75 9.875 C-3.73195313 10.69226563 -3.71390625 11.50953125 -3.6953125 12.3515625 C-3.67210938 12.97804688 -3.64890625 13.60453125 -3.625 14.25 C-7.42016358 9.62980085 -7.42016358 9.62980085 -7.625 6.25 C-4.58925603 0.31650042 -4.58925603 0.31650042 0 0 Z " fill="#4E847E" transform="translate(76.625,58.75)"/>
<path d="M0 0 C5.03321033 6.40590406 5.03321033 6.40590406 4.9375 11 C3.73015974 14.86348884 2.51010257 16.01602898 -1 18 C-4.625 18.4375 -4.625 18.4375 -8 18 C-9.7109375 16.47265625 -9.7109375 16.47265625 -11 15 C-10.30132812 15.02320312 -9.60265625 15.04640625 -8.8828125 15.0703125 C-7.51769531 15.09738281 -7.51769531 15.09738281 -6.125 15.125 C-5.22007813 15.14820312 -4.31515625 15.17140625 -3.3828125 15.1953125 C-0.81193006 15.24324836 -0.81193006 15.24324836 1 13 C1.22325051 8.46057302 1.10720735 4.42882939 0 0 Z " fill="#4E847E" transform="translate(93,68)"/>
<path d="M0 0 C2.49361571 1.20381448 4.68143083 2.45428722 7 4 C7.47114738 6.7427508 7.17805784 9.19558897 7 12 C6 13 6 13 2.1875 13.375 C-1.42365845 13.36203354 -1.77404543 13.22595457 -4.5 10.5 C-4.995 9.675 -5.49 8.85 -6 8 C-5.67 7.34 -5.34 6.68 -5 6 C-3.9171875 6.9590625 -3.9171875 6.9590625 -2.8125 7.9375 C-0.01808816 9.98673535 1.61663274 10.61332946 5 11 C3.92289822 6.69159287 2.96052484 3.36423277 0 0 Z " fill="#93B4B0" transform="translate(84,67)"/>
<path d="M0 0 C4.75 0.875 4.75 0.875 7 2 C6.67 3.65 6.34 5.3 6 7 C3.13275314 6.42655063 2.1385485 6.1385485 0 4 C0 2.68 0 1.36 0 0 Z " fill="#C1D4D2" transform="translate(80,69)"/>
<path d="M0 0 C1.4540625 0.0309375 1.4540625 0.0309375 2.9375 0.0625 C3.2675 0.7225 3.5975 1.3825 3.9375 2.0625 C2.2875 2.3925 0.6375 2.7225 -1.0625 3.0625 C-1.3925 4.7125 -1.7225 6.3625 -2.0625 8.0625 C-2.7225 7.7325 -3.3825 7.4025 -4.0625 7.0625 C-4.10504356 5.06295254 -4.10330783 3.06208364 -4.0625 1.0625 C-3.0625 0.0625 -3.0625 0.0625 0 0 Z " fill="#93B4B1" transform="translate(80.0625,64.9375)"/>
</svg>
